# xmcd
#
# Track frame offsets: 
#        150
#        23070
#        42422
#        62507
#        82460
#        105127
#        129752
#        154012
#        178105
#
# Disc length: 2745 seconds
#
# Revision: 4
# Processed by: cddbd v1.5.2PL0 Copyright (c) Steve Scherf et al.
# Submitted via: ExactAudioCopy v0.99pb1
#
DISCID=680ab709
DTITLE=Kenny Dorham - Afro-Cuban
DYEAR=1955
DGENRE=Afro Cuban
TTITLE0=Afrodisia
TTITLE1=Lotus Flower
TTITLE2=Minor's Holiday
TTITLE3=Minor's Holiday (alt. take)
TTITLE4=Basheer's Dream
TTITLE5=K.D.'s Motion
TTITLE6=La Villa
TTITLE7=Venita's Dance
TTITLE8=K.D.'s Cab Ride
EXTD=YEAR: 1955
EXTT0=
EXTT1=
EXTT2=
EXTT3=
EXTT4=
EXTT5=
EXTT6=
EXTT7=
EXTT8=
PLAYORDER=
